<svg version="1.2" xmlns="http://www.w3.org/2000/svg" viewBox="0 0 24 24" width="24" height="24">
	<title>3-dots-horizontal-svgrepo-com-svg</title>
	<style>
		.s0 { opacity: 0;fill: #141124 } 
		.s1 { fill: #141124 } 
	</style>
	<path id="view-box" class="s0" d="m0 0h24v24h-24z" />
	<path id="Shape" class="s1" d="m12 17c0.6 0 1.2 0.4 1.4 0.9c0.2 0.6 0.1 1.2-0.3 1.7c-0.5 0.4-1.1 0.5-1.7 0.3c-0.5-0.2-0.9-0.8-0.9-1.4q0-0.3 0.1-0.6q0.1-0.2 0.3-0.5q0.3-0.2 0.5-0.3q0.3-0.1 0.6-0.1zm0-6c0.6 0 1.2 0.4 1.4 0.9c0.2 0.6 0.1 1.2-0.3 1.7c-0.5 0.4-1.1 0.5-1.7 0.3c-0.5-0.2-0.9-0.8-0.9-1.4q0-0.3 0.1-0.6q0.1-0.2 0.3-0.5q0.3-0.2 0.5-0.3q0.3-0.1 0.6-0.1zm0-6c0.6 0 1.2 0.4 1.4 0.9c0.2 0.6 0.1 1.2-0.3 1.7c-0.5 0.4-1.1 0.5-1.7 0.3c-0.5-0.2-0.9-0.8-0.9-1.4q0-0.3 0.1-0.6q0.1-0.2 0.3-0.5q0.3-0.2 0.5-0.3q0.3-0.1 0.6-0.1z" />
</svg>